<?xml version="1.0" standalone="no"?>
<!DOCTYPE svg PUBLIC "-//W3C//DTD SVG 20010904//EN"
 "http://www.w3.org/TR/2001/REC-SVG-20010904/DTD/svg10.dtd">
<svg version="1.0" xmlns="http://www.w3.org/2000/svg"
 width="128.000000pt" height="128.000000pt" viewBox="0 0 128.000000 128.000000"
 preserveAspectRatio="xMidYMid meet">
<metadata>
Created by potrace 1.14, written by Peter Selinger 2001-2017
</metadata>
<g transform="translate(0.000000,128.000000) scale(0.100000,-0.100000)"
fill="#000000" stroke="none">
<path d="M2 1149 l0 -129 154 0 154 0 25 50 c14 27 25 51 25 53 0 1 -56 2
-125 2 l-126 -1 3 25 3 26 160 1 c88 0 163 -1 167 -3 4 -2 -16 -48 -44 -103
l-51 -99 -171 0 -171 1 0 -203 0 -204 52 -1 53 -1 0 153 0 153 118 0 118 0 53
-99 52 -100 -96 0 c-94 0 -96 1 -93 23 3 19 9 22 48 22 51 0 54 10 18 71 l-20
35 -76 -3 -76 -3 2 -110 c0 -60 1 -117 1 -127 1 -14 24 -16 230 -16 l229 0
-17 36 c-9 20 -49 101 -89 179 l-72 143 89 179 90 178 -308 1 -308 0 -1 -129z"/>
<path d="M670 1274 c0 -2 39 -82 87 -178 l87 -174 -87 -176 c-48 -96 -87 -178
-87 -181 0 -3 25 -5 56 -3 l56 3 77 150 76 150 121 3 121 3 0 -153 0 -153 51
-2 52 -2 0 204 0 205 -27 0 c-16 1 -93 2 -172 3 l-144 2 -43 82 c-66 127 -76
117 118 118 l166 0 -1 -25 -2 -25 -123 0 c-67 1 -122 -3 -122 -7 0 -4 10 -28
22 -53 l22 -45 153 0 153 0 0 129 0 128 -305 1 c-168 0 -305 -2 -305 -4z"/>
<path d="M955 788 c-38 -75 -38 -74 16 -73 27 1 49 -1 50 -4 0 -3 2 -14 4 -23
3 -16 -5 -18 -64 -18 l-67 0 -25 -47 c-13 -26 -25 -51 -27 -55 -2 -4 61 -6
140 -5 l143 2 1 128 2 127 -78 0 c-78 0 -79 0 -95 -32z"/>
<path d="M6 512 c-2 -1 29 -67 69 -145 l72 -142 89 -3 89 -3 36 -69 c21 -41
31 -71 25 -73 -6 -2 -60 -3 -121 -2 -96 0 -110 2 -113 18 -3 15 6 17 87 17 50
0 91 3 91 8 -1 4 -9 21 -18 37 l-17 31 -110 -1 -110 0 -1 -93 0 -92 402 0 402
0 0 206 c0 113 2 207 4 210 2 2 26 -41 53 -96 l49 -100 93 0 93 0 0 90 c0 65
-4 90 -12 91 -33 4 -124 5 -130 2 -13 -6 25 -65 48 -73 29 -11 30 -16 5 -30
-32 -16 -50 -1 -87 72 l-35 69 123 -3 123 -3 0 -177 c0 -112 -4 -179 -10 -181
-5 -2 -53 -3 -105 -2 -82 0 -95 3 -98 18 -3 15 7 17 87 17 l91 0 0 38 0 38
-122 -2 c-68 -1 -126 -2 -130 -3 -5 0 -8 -41 -8 -91 l0 -90 185 0 185 0 0 258
0 257 -636 0 c-349 0 -637 -1 -638 -3z m512 -167 l62 -125 95 0 96 0 -3 92 -3
93 -72 0 c-40 0 -73 -1 -73 -3 0 -22 36 -72 51 -72 18 0 28 -29 12 -31 -5 0
-15 -2 -24 -4 -9 -1 -21 0 -26 4 -10 6 -73 124 -73 136 0 3 54 5 120 5 118 0
120 0 121 -22 1 -28 1 -272 0 -313 l-1 -30 -102 0 c-95 -1 -117 5 -118 28 0 4
43 7 95 7 l95 0 0 35 c0 19 -3 36 -7 36 -5 1 -63 2 -130 3 l-122 1 -3 -75 -3
-75 -64 125 c-35 69 -68 128 -73 131 -4 3 -42 5 -83 4 -41 -1 -78 1 -83 4 -9
6 -72 125 -72 136 0 3 54 5 121 5 109 0 120 -2 117 -17 -3 -16 -15 -18 -91
-17 -48 0 -87 -3 -87 -6 0 -4 7 -21 16 -38 l15 -32 109 0 c77 0 109 4 112 13
3 6 4 38 3 70 -1 31 1 57 5 57 3 0 33 -56 68 -125z"/>
<path d="M7 123 c-16 -15 -6 -43 15 -43 12 0 18 -3 14 -7 -4 -5 -13 -8 -19 -8
-7 0 -12 -13 -12 -30 0 -23 4 -30 20 -30 18 0 20 8 23 63 3 55 1 62 -16 62
-10 0 -22 -3 -25 -7z"/>
</g>
</svg>
